<svg xmlns="http://www.w3.org/2000/svg" width="95" height="121" viewBox="0 0 95 121" fill="none"><path d="M84.9042 68.3725H82.6013V65.1979C82.6008 64.6804 82.3949 64.1843 82.0288 63.8187C77.4469 59.2052 71.2835 56.5044 64.7858 56.2628C58.2881 56.0213 51.9412 58.257 47.0294 62.5176C42.1176 58.257 35.7707 56.0213 29.273 56.2628C22.7753 56.5044 16.6119 59.2052 12.03 63.8187C11.6639 64.1843 11.458 64.6804 11.4575 65.1979V68.3725H9.15461C8.42332 68.3725 7.6992 68.5166 7.02357 68.7964C6.34795 69.0763 5.73406 69.4864 5.21696 70.0035C4.69986 70.5206 4.28968 71.1345 4.00983 71.8102C3.72997 72.4858 3.58594 73.2099 3.58594 73.9412V113.182C3.58594 114.659 4.17263 116.075 5.21696 117.12C6.26129 118.164 7.67771 118.751 9.15461 118.751H40.8492C42.5809 120.204 44.769 121 47.0294 121C49.2898 121 51.478 120.204 53.2096 118.751H84.9042C86.3811 118.751 87.7975 118.164 88.8419 117.12C89.8862 116.075 90.4729 114.659 90.4729 113.182V73.9412C90.4729 73.2099 90.3289 72.4858 90.049 71.8102C89.7692 71.1345 89.359 70.5206 88.8419 70.0035C88.3248 69.4864 87.7109 69.0763 87.0353 68.7964C86.3596 68.5166 85.6355 68.3725 84.9042 68.3725ZM15.3608 66.0306C19.3936 62.2679 24.7038 60.1753 30.2193 60.1753C35.7349 60.1753 41.045 62.2679 45.0778 66.0306V105.141C40.7324 102.069 35.5413 100.419 30.2193 100.419C24.8973 100.419 19.7062 102.069 15.3608 105.141V66.0306ZM48.9811 66.0306C53.0138 62.2679 58.324 60.1753 63.8395 60.1753C69.3551 60.1753 74.6652 62.2679 78.698 66.0306V105.141C74.3526 102.069 69.1615 100.419 63.8395 100.419C58.5175 100.419 53.3264 102.069 48.9811 105.141V66.0306ZM86.5696 113.182C86.5662 113.623 86.3897 114.044 86.0781 114.356C85.7665 114.668 85.3449 114.844 84.9042 114.848H52.468C52.2239 114.851 51.982 114.895 51.7524 114.978C51.5104 115.071 51.2925 115.218 51.1148 115.407C50.0353 116.478 48.5762 117.079 47.0554 117.079C45.5347 117.079 44.0756 116.478 42.996 115.407C42.8184 115.218 42.6005 115.071 42.3585 114.978C42.1289 114.895 41.887 114.851 41.6429 114.848H9.15461C8.71397 114.844 8.29235 114.668 7.98076 114.356C7.66917 114.044 7.49262 113.623 7.48922 113.182V73.9412C7.48922 73.4995 7.66468 73.0759 7.977 72.7636C8.28932 72.4513 8.71292 72.2758 9.15461 72.2758H11.4575V109.344C11.4575 109.73 11.571 110.107 11.7839 110.428C11.9967 110.75 12.2996 111.002 12.6546 111.152C12.8955 111.245 13.1511 111.293 13.4092 111.296C13.6655 111.296 13.9194 111.246 14.1561 111.147C14.3928 111.049 14.6077 110.905 14.7883 110.723C16.8128 108.693 19.2179 107.083 21.8658 105.984C24.5137 104.885 27.3524 104.319 30.2193 104.319C33.0862 104.319 35.9249 104.885 38.5728 105.984C41.2207 107.083 43.6258 108.693 45.6503 110.723H45.7283C45.798 110.794 45.8767 110.855 45.9625 110.905C46.0403 110.961 46.1231 111.008 46.2097 111.048C46.2097 111.048 46.2097 111.048 46.2878 111.048L46.6391 111.152C46.7655 111.197 46.8964 111.227 47.0294 111.244H47.2766C47.4455 111.225 47.6116 111.185 47.771 111.126C47.9226 111.06 48.0666 110.977 48.2004 110.879L48.3045 110.788L48.3956 110.71C50.42 108.68 52.8251 107.07 55.473 105.971C58.1209 104.872 60.9596 104.306 63.8265 104.306C66.6934 104.306 69.5321 104.872 72.18 105.971C74.8279 107.07 77.233 108.68 79.2575 110.71C79.5304 110.983 79.878 111.168 80.2564 111.243C80.6347 111.319 81.0269 111.28 81.3833 111.132C81.7397 110.985 82.0443 110.735 82.2588 110.414C82.4733 110.094 82.5879 109.717 82.5883 109.331V72.2758H84.8912C85.1099 72.2758 85.3265 72.3189 85.5285 72.4026C85.7306 72.4863 85.9142 72.6089 86.0688 72.7636C86.2235 72.9182 86.3461 73.1018 86.4298 73.3039C86.5135 73.5059 86.5566 73.7225 86.5566 73.9412L86.5696 113.182Z" fill="#3E4EA6"></path><path d="M8.0625 51.5233C8.23102 51.8313 8.47951 52.0881 8.78176 52.2668C9.08402 52.4454 9.42887 52.5391 9.77995 52.5382C10.1291 52.5382 10.4718 52.4439 10.7718 52.2653C11.0718 52.0866 11.318 51.8303 11.4844 51.5233L13.9825 46.9695L18.5493 44.4714C18.8556 44.3012 19.1108 44.0523 19.2885 43.7503C19.4662 43.4483 19.5599 43.1043 19.5599 42.754C19.5599 42.4036 19.4662 42.0596 19.2885 41.7576C19.1108 41.4556 18.8556 41.2067 18.5493 41.0365L13.9825 38.5514L11.4844 33.9846C11.318 33.6776 11.0718 33.4213 10.7718 33.2426C10.4718 33.064 10.1291 32.9697 9.77995 32.9697C9.42887 32.9688 9.08402 33.0625 8.78176 33.2411C8.47951 33.4198 8.23102 33.6766 8.0625 33.9846L5.56441 38.5514L1.01058 40.9845C0.704295 41.1546 0.449081 41.4036 0.271391 41.7056C0.0937004 42.0075 0 42.3515 0 42.7019C0 43.0523 0.0937004 43.3963 0.271391 43.6983C0.449081 44.0002 0.704295 44.2492 1.01058 44.4193L5.56441 46.9174L8.0625 51.5233ZM7.99745 41.7001C8.32348 41.5196 8.59014 41.2484 8.7651 40.9194L9.83199 38.9808L10.8338 40.9845C11.0141 41.314 11.285 41.5849 11.6145 41.7651L13.5401 42.819L11.6145 43.8729C11.285 44.0531 11.0141 44.3241 10.8338 44.6535L9.77995 46.5922L8.71305 44.6535C8.53809 44.3245 8.27143 44.0534 7.94541 43.8729L6.00678 42.819L7.99745 41.7001Z" fill="#3E4EA6"></path><path d="M93.0623 40.9848L88.4955 38.4997L86.0624 33.9849C85.8942 33.6782 85.6466 33.4225 85.3456 33.2443C85.0446 33.0662 84.7013 32.9722 84.3515 32.9722C84.0017 32.9722 83.6584 33.0662 83.3574 33.2443C83.0564 33.4225 82.8088 33.6782 82.6406 33.9849L80.0774 38.5517L75.5106 40.9848C75.2043 41.1549 74.9491 41.4039 74.7714 41.7058C74.5937 42.0078 74.5 42.3518 74.5 42.7022C74.5 43.0526 74.5937 43.3966 74.7714 43.6985C74.9491 44.0005 75.2043 44.2495 75.5106 44.4196L80.0774 46.9698L82.5755 51.5236C82.7438 51.8302 82.9914 52.086 83.2924 52.2642C83.5934 52.4423 83.9367 52.5363 84.2865 52.5363C84.6362 52.5363 84.9796 52.4423 85.2806 52.2642C85.5815 52.086 85.8291 51.8302 85.9974 51.5236L88.4955 46.9698L93.0623 44.4717C93.3686 44.3015 93.6238 44.0526 93.8015 43.7506C93.9792 43.4486 94.0729 43.1046 94.0729 42.7542C94.0729 42.4039 93.9792 42.0599 93.8015 41.7579C93.6238 41.4559 93.3686 41.2069 93.0623 41.0368V40.9848ZM86.0624 43.8081C85.7364 43.9886 85.4698 44.2598 85.2948 44.5888L84.2279 46.5274L83.174 44.5888C82.9904 44.2618 82.7203 43.9918 82.3934 43.8081L80.4677 42.7542L82.3934 41.7004C82.7203 41.5167 82.9904 41.2466 83.174 40.9197L84.2279 38.9811L85.3468 40.9848C85.5218 41.3138 85.7885 41.5849 86.1145 41.7654L88.0531 42.8193L86.0624 43.8081Z" fill="#3E4EA6"></path><path d="M38.2608 32.0462L42.8146 34.5443L45.3127 39.1112C45.4828 39.4174 45.7318 39.6727 46.0338 39.8503C46.3357 40.028 46.6797 40.1217 47.0301 40.1217C47.3805 40.1217 47.7245 40.028 48.0265 39.8503C48.3284 39.6727 48.5774 39.4174 48.7476 39.1112L51.2326 34.5443L55.7995 32.0462C56.1061 31.8779 56.3619 31.6304 56.54 31.3294C56.7182 31.0284 56.8122 30.685 56.8122 30.3353C56.8122 29.9855 56.7182 29.6422 56.54 29.3412C56.3619 29.0402 56.1061 28.7926 55.7995 28.6243L51.2326 26.1262L48.7476 21.5594C48.5774 21.2531 48.3284 20.9979 48.0265 20.8202C47.7245 20.6425 47.3805 20.5488 47.0301 20.5488C46.6797 20.5488 46.3357 20.6425 46.0338 20.8202C45.7318 20.9979 45.4828 21.2531 45.3127 21.5594L42.8146 26.1262L38.2608 28.6243C37.9541 28.7926 37.6984 29.0402 37.5202 29.3412C37.342 29.6422 37.248 29.9855 37.248 30.3353C37.248 30.685 37.342 31.0284 37.5202 31.3294C37.6984 31.6304 37.9541 31.8779 38.2608 32.0462ZM45.1956 29.2749C45.5246 29.0999 45.7958 28.8333 45.9762 28.5072L47.0301 26.5686L48.084 28.5072C48.2645 28.8333 48.5356 29.0999 48.8647 29.2749L50.8033 30.3418L48.8647 31.3957C48.5352 31.5759 48.2643 31.8468 48.084 32.1763L47.0301 34.1019L45.9762 32.1763C45.796 31.8468 45.5251 31.5759 45.1956 31.3957L43.2569 30.3418L45.1956 29.2749Z" fill="#3E4EA6"></path><path d="M32.5626 49.5713C32.7212 49.9101 32.9731 50.1966 33.2889 50.3971C33.6047 50.5977 33.9711 50.7039 34.3451 50.7033C34.6279 50.6989 34.9068 50.6369 35.1648 50.5211C35.3987 50.4136 35.6089 50.2605 35.783 50.0708C35.9571 49.8812 36.0917 49.6587 36.1789 49.4165C36.2661 49.1743 36.3042 48.9171 36.2909 48.66C36.2776 48.4028 36.2133 48.1509 36.1016 47.919L21.1911 15.821C21.0826 15.5886 20.9294 15.3799 20.7402 15.2067C20.5511 15.0336 20.3297 14.8994 20.0886 14.8118C19.8476 14.7242 19.5917 14.6849 19.3355 14.6962C19.0793 14.7076 18.8278 14.7692 18.5954 14.8777C18.363 14.9862 18.1543 15.1394 17.9812 15.3286C17.808 15.5177 17.6738 15.7392 17.5862 15.9802C17.4986 16.2212 17.4593 16.4771 17.4707 16.7333C17.482 16.9896 17.5436 17.241 17.6521 17.4734L32.5626 49.5713Z" fill="#3E4EA6"></path><path d="M29.7907 14.754C29.9457 15.0927 30.195 15.3796 30.5088 15.5804C30.8227 15.7811 31.1877 15.8872 31.5602 15.8859C31.8431 15.883 32.1223 15.821 32.3799 15.7038C32.8498 15.4834 33.2135 15.0861 33.3914 14.5986C33.5694 14.111 33.5472 13.5728 33.3297 13.1016L30.6364 7.31173C30.4173 6.84243 30.0207 6.4794 29.5339 6.3025C29.0472 6.1256 28.51 6.14932 28.0407 6.36844C27.5714 6.58756 27.2084 6.98413 27.0315 7.47091C26.8546 7.9577 26.8783 8.49482 27.0974 8.96412L29.7907 14.754Z" fill="#3E4EA6"></path><path d="M4.95243 27.167C5.10875 27.5047 5.35838 27.7907 5.6719 27.9913C5.98542 28.1919 6.34974 28.2986 6.72192 28.2989C7.00556 28.3024 7.28614 28.24 7.54161 28.1168C7.77547 28.009 7.9857 27.856 8.16018 27.6667C8.33466 27.4773 8.46994 27.2553 8.55823 27.0134C8.64651 26.7715 8.68606 26.5145 8.6746 26.2573C8.66313 26.0001 8.60087 25.7476 8.49141 25.5146L5.79814 19.7247C5.5683 19.2759 5.17364 18.9334 4.69687 18.7691C4.22011 18.6048 3.69826 18.6314 3.24069 18.8434C2.78312 19.0553 2.42535 19.4362 2.24238 19.9061C2.0594 20.376 2.06542 20.8985 2.25917 21.3641L4.95243 27.167Z" fill="#3E4EA6"></path><path d="M61.0046 15.7038C61.2627 15.8195 61.5416 15.8815 61.8243 15.8859C62.1969 15.8872 62.5619 15.7811 62.8757 15.5804C63.1895 15.3796 63.4388 15.0927 63.5938 14.754L66.2871 8.96412C66.5062 8.49482 66.5299 7.9577 66.353 7.47091C66.1761 6.98413 65.8131 6.58756 65.3438 6.36844C64.8745 6.14932 64.3374 6.1256 63.8506 6.3025C63.3638 6.4794 62.9672 6.84243 62.7481 7.31173L60.0418 13.1016C59.8252 13.5744 59.8049 14.1139 59.9854 14.6017C60.1658 15.0895 60.5324 15.4858 61.0046 15.7038Z" fill="#3E4EA6"></path><path d="M85.8409 28.1165C86.0963 28.2397 86.3769 28.3021 86.6606 28.2986C87.0331 28.2999 87.3981 28.1938 87.7119 27.9931C88.0257 27.7923 88.275 27.5054 88.43 27.1667L91.1233 21.3768C91.2431 21.1429 91.3144 20.8873 91.3329 20.6251C91.3515 20.363 91.3169 20.0999 91.2313 19.8514C91.1457 19.603 91.0108 19.3744 90.8347 19.1794C90.6586 18.9843 90.4449 18.8269 90.2065 18.7164C89.9681 18.606 89.7098 18.5448 89.4471 18.5366C89.1845 18.5284 88.9229 18.5733 88.678 18.6686C88.4332 18.764 88.2101 18.9078 88.0221 19.0915C87.8342 19.2751 87.6853 19.4948 87.5843 19.7374L84.8911 25.5273C84.6741 25.9967 84.6523 26.5329 84.8303 27.0184C85.0084 27.5038 85.3719 27.8988 85.8409 28.1165Z" fill="#3E4EA6"></path><path d="M59.2881 50.5211C59.5457 50.6383 59.8249 50.7004 60.1078 50.7033C60.4804 50.7046 60.8454 50.5985 61.1592 50.3978C61.473 50.197 61.7223 49.9101 61.8773 49.5713L76.8008 17.4734C77.02 17.0041 77.0437 16.467 76.8668 15.9802C76.6899 15.4934 76.3268 15.0968 75.8576 14.8777C75.3883 14.6586 74.8511 14.6349 74.3644 14.8118C73.8776 14.9887 73.481 15.3517 73.2619 15.821L58.3383 47.932C58.1214 48.4013 58.0995 48.9376 58.2776 49.423C58.4557 49.9085 58.8191 50.3034 59.2881 50.5211Z" fill="#3E4EA6"></path><path d="M47.0298 14.6243C47.5474 14.6243 48.0438 14.4187 48.4098 14.0527C48.7758 13.6867 48.9814 13.1902 48.9814 12.6726V1.95164C48.9814 1.43403 48.7758 0.937625 48.4098 0.571622C48.0438 0.205619 47.5474 0 47.0298 0C46.5122 0 46.0157 0.205619 45.6497 0.571622C45.2837 0.937625 45.0781 1.43403 45.0781 1.95164V12.6726C45.0781 13.1902 45.2837 13.6867 45.6497 14.0527C46.0157 14.4187 46.5122 14.6243 47.0298 14.6243Z" fill="#3E4EA6"></path></svg>