<svg xmlns="http://www.w3.org/2000/svg" width="94" height="94" viewBox="0 0 94 94" fill="none"><path d="M47.3869 40.727C57.2527 40.727 65.2505 32.7293 65.2505 22.8635C65.2505 12.9978 57.2527 5 47.3869 5C37.5212 5 29.5234 12.9978 29.5234 22.8635C29.5234 32.7293 37.5212 40.727 47.3869 40.727Z" fill="#364BC5"></path><path d="M58.795 44.0879C55.4345 45.945 51.455 47.0062 47.3871 47.0062C43.2307 47.0062 39.3396 45.945 35.9792 44.0879C26.4284 45.5028 19 53.6387 19 63.6316V84.8556C19 87.1549 20.8571 89.1004 23.2448 89.1004H71.6178C73.917 89.1004 75.8626 87.2433 75.8626 84.8556V63.6316C75.7741 53.6387 68.4342 45.4144 58.795 44.0879ZM52.2509 79.8149L47.9177 83.7944C47.6524 84.0597 47.2102 84.0597 46.9449 83.7944L42.6117 79.8149C42.4348 79.638 42.3464 79.3728 42.3464 79.1075L45.7953 59.4753C45.7953 59.4753 44.7341 59.4753 44.0266 59.4753C43.5844 59.4753 43.3191 59.1215 43.3191 58.7678C43.3191 57.4413 43.3191 54.7883 43.3191 53.4618C43.3191 53.0196 43.6729 52.7543 44.0266 52.7543H50.836C51.2781 52.7543 51.5434 53.1081 51.5434 53.4618V58.7678C51.5434 59.21 51.1897 59.4753 50.836 59.4753C50.1285 59.4753 49.0673 59.4753 49.0673 59.4753L52.5162 79.1075C52.5162 79.3728 52.4278 79.638 52.2509 79.8149Z" fill="#364BC5"></path></svg>