<svg xmlns="http://www.w3.org/2000/svg" width="140" height="140" viewBox="0 0 140 140" fill="none"><g filter="url(#filter0_b_55_1205)"><circle cx="70" cy="70" r="70" fill="url(#paint0_linear_55_1205)"></circle><circle cx="70" cy="70" r="69.5" stroke="url(#paint1_linear_55_1205)"></circle></g><path d="M62.1944 24.399C61.7278 24.3057 61.4478 24.119 61.1678 23.7457C60.8879 23.3725 60.7012 23.0925 60.6079 22.7192L61.6344 22.5326C61.7278 22.9058 61.9144 23.1858 62.1944 23.3725C62.4743 23.5591 62.9409 23.6524 63.4076 23.5591C63.9675 23.4658 64.3408 23.3725 64.5274 23.0925C64.7141 22.8125 64.9007 22.4392 64.8074 22.066C64.8074 21.786 64.6207 21.506 64.4341 21.4127C64.2475 21.2261 64.0608 21.1327 63.7808 21.0394C63.5009 20.9461 63.2209 20.9461 62.7543 20.8528C62.1944 20.7594 61.8211 20.7594 61.4478 20.6661C61.1678 20.5728 60.7945 20.3862 60.6079 20.1995C60.3279 19.9195 60.1413 19.5463 60.1413 19.0796C60.048 18.613 60.1413 18.2398 60.3279 17.8665C60.5146 17.4932 60.7945 17.2132 61.0745 16.9332C61.4478 16.6533 61.8211 16.56 62.381 16.4666C63.1276 16.3733 63.6875 16.4666 64.2475 16.7466C64.8074 17.0266 65.0873 17.4932 65.274 18.0531L64.1541 18.2398C64.0608 17.9598 63.8742 17.6798 63.5942 17.4932C63.3142 17.3065 62.9409 17.2132 62.4743 17.3065C62.0077 17.3999 61.7278 17.4932 61.4478 17.7731C61.1678 18.0531 61.1678 18.3331 61.1678 18.7064C61.1678 18.9863 61.3545 19.173 61.5411 19.3596C61.7278 19.5463 61.9144 19.6396 62.1944 19.6396C62.4743 19.7329 62.7543 19.7329 63.2209 19.8262C63.7808 19.9195 64.1541 20.0129 64.5274 20.0129C64.9007 20.1062 65.1807 20.2928 65.4606 20.4795C65.7406 20.7594 65.9272 21.1327 65.9272 21.5993C66.0206 21.9726 65.9272 22.3459 65.8339 22.7192C65.7406 23.0925 65.4606 23.3725 65.0873 23.6524C64.5274 24.2124 64.1541 24.399 63.5942 24.399C63.0343 24.4923 62.5677 24.4923 62.1944 24.399Z" fill="white"></path><path d="M72.3665 16V16.8399H70.2201L70.3134 23.839H69.2868L69.1935 16.8399H67.0471V16H72.3665Z" fill="white"></path><path d="M75.726 16.2799L75.0728 21.1326C74.9795 21.7859 75.0728 22.3458 75.3528 22.7191C75.726 23.0924 76.1927 23.3724 76.7526 23.4657C77.3125 23.559 77.8725 23.4657 78.2457 23.1857C78.619 22.9058 78.899 22.4392 78.9923 21.6926L79.6456 16.8398L80.6721 16.9332L80.0189 21.7859C79.9255 22.4392 79.7389 22.9991 79.4589 23.3724C79.179 23.7457 78.7123 24.0256 78.2457 24.2123C77.7791 24.3989 77.3125 24.3989 76.7526 24.3056C76.1927 24.2123 75.726 24.0256 75.3528 23.7457C74.9795 23.4657 74.6062 23.0924 74.4195 22.6258C74.2329 22.1592 74.1396 21.5993 74.2329 20.946L74.8862 16.0933L75.726 16.2799Z" fill="white"></path><path d="M87.7645 19.2663C88.2311 19.733 88.6044 20.2929 88.6977 20.9461C88.7911 21.5994 88.7911 22.346 88.6044 23.0925C88.4178 23.8391 88.0445 24.4924 87.4846 24.959C87.0179 25.4256 86.3647 25.7056 85.7114 25.7989C85.0582 25.8922 84.3116 25.8922 83.4717 25.6122L81.1387 24.8657L83.3784 17.3999L85.7114 18.1465C86.6447 18.4264 87.2979 18.7997 87.7645 19.2663ZM86.178 24.7723C86.8313 24.399 87.2979 23.7458 87.5779 22.8126C87.8578 21.8794 87.8578 21.0395 87.4846 20.3862C87.1113 19.733 86.458 19.2663 85.5248 18.8931L84.2183 18.5198L82.4452 24.399L83.7517 24.7723C84.6849 25.1456 85.5248 25.1456 86.178 24.7723Z" fill="white"></path><path d="M97.0034 22.8123L92.6173 26.0786L91.3108 28.6916L90.3776 28.225L91.6841 25.612L91.4974 20.106L92.524 20.6659V25.052L95.9769 22.3457L97.0034 22.8123Z" fill="white"></path><path d="M103.909 27.385L99.4298 33.8243L98.5899 33.2643L100.643 30.3713L97.3767 28.1316L95.4169 30.9313L94.577 30.3713L99.0565 23.9321L99.8964 24.4921L97.9366 27.2917L101.203 29.5314L103.163 26.7318L103.909 27.385Z" fill="white"></path><path d="M106.989 29.9985L103.536 33.5447C103.069 34.0113 102.789 34.5712 102.789 35.0379C102.789 35.5045 103.069 35.9711 103.443 36.3444C103.909 36.7176 104.283 36.9976 104.842 36.9976C105.309 36.9976 105.776 36.7176 106.242 36.251L109.695 32.7048L110.442 33.4514L106.989 36.9976C106.522 37.4642 106.056 37.7442 105.589 37.9308C105.122 38.1175 104.656 38.0242 104.096 37.9308C103.629 37.7442 103.163 37.4642 102.789 37.0909C102.416 36.7176 102.136 36.251 101.949 35.7844C101.763 35.3178 101.763 34.8512 101.856 34.3846C101.949 33.918 102.229 33.3581 102.696 32.8914L106.149 29.3452L106.989 29.9985Z" fill="white"></path><path d="M111.935 41.757C111.935 42.0369 111.842 42.3169 111.748 42.5969C111.655 42.8768 111.375 43.0635 111.188 43.3434C110.908 43.6234 110.535 43.7167 110.162 43.7167C109.789 43.7167 109.415 43.6234 109.042 43.4368C108.669 43.2501 108.295 42.9701 108.015 42.5035L106.149 40.2638L112.402 35.5044L114.081 37.7441C114.361 38.2107 114.641 38.584 114.735 38.9573C114.828 39.3306 114.828 39.7039 114.641 40.0772C114.548 40.4505 114.268 40.6371 113.988 40.9171C113.615 41.197 113.241 41.2904 112.868 41.2904C112.495 41.2904 112.122 41.1037 111.748 40.9171C111.842 41.197 111.935 41.477 111.935 41.757ZM109.509 42.6902C109.882 42.7835 110.255 42.6902 110.535 42.4102C110.908 42.1303 111.095 41.8503 111.095 41.477C111.095 41.1037 111.002 40.7304 110.628 40.2638L109.602 38.864L107.455 40.5438L108.575 41.9436C108.855 42.4102 109.135 42.6902 109.509 42.6902ZM110.255 38.3974L111.282 39.7972C111.562 40.1705 111.842 40.4505 112.215 40.4505C112.588 40.5438 112.868 40.4505 113.148 40.1705C113.428 39.8905 113.615 39.6106 113.615 39.3306C113.615 38.9573 113.521 38.584 113.241 38.2107L112.215 36.9042L110.255 38.3974Z" fill="white"></path><path d="M117.068 51.2758C116.974 51.5557 116.881 51.8357 116.694 52.1157C116.508 52.3956 116.228 52.5823 115.948 52.6756C115.574 52.8622 115.201 52.8622 114.828 52.8622C114.455 52.8622 114.081 52.6756 113.801 52.3956C113.428 52.1157 113.241 51.7424 112.961 51.2758L111.748 48.6628L118.841 45.3965L120.054 47.9162C120.241 48.3828 120.427 48.8494 120.427 49.2227C120.427 49.596 120.334 49.9693 120.147 50.2492C119.961 50.5292 119.681 50.8092 119.307 50.9025C118.841 51.0891 118.467 51.1824 118.094 51.0891C117.721 50.9958 117.348 50.8092 117.068 50.4359C117.161 50.7158 117.161 50.9958 117.068 51.2758ZM114.548 51.6491C114.921 51.8357 115.201 51.8357 115.668 51.6491C116.041 51.4624 116.321 51.1824 116.414 50.8092C116.508 50.4359 116.414 50.0626 116.228 49.596L115.481 48.0095L112.961 49.1294L113.708 50.8092C113.988 51.1824 114.268 51.5557 114.548 51.6491ZM116.228 47.6362L116.974 49.2227C117.161 49.6893 117.441 49.9693 117.721 50.0626C118.001 50.2492 118.374 50.1559 118.747 50.0626C119.121 49.8759 119.307 49.6893 119.401 49.316C119.494 48.9427 119.401 48.5694 119.214 48.1028L118.467 46.6097L116.228 47.6362Z" fill="white"></path><path d="M121.547 53.7952L119.027 54.5418L119.867 57.2481L119.027 57.5281L118.187 54.8218L115.574 55.5683L116.508 58.648L115.668 58.9279L114.455 54.9151L121.92 52.582L123.134 56.5949L122.294 56.8748L121.547 53.7952Z" fill="white"></path><path d="M116.508 61.4479C116.601 60.9813 116.788 60.7013 117.068 60.4213C117.348 60.1414 117.721 59.9547 118.094 59.8614L118.281 60.8879C117.908 60.9813 117.628 61.1679 117.441 61.4479C117.254 61.7278 117.161 62.1944 117.254 62.6611C117.348 63.1277 117.534 63.501 117.814 63.6876C118.094 63.9676 118.467 63.9676 118.841 63.9676C119.121 63.8742 119.401 63.7809 119.494 63.5943C119.681 63.4076 119.774 63.221 119.774 62.941C119.867 62.6611 119.867 62.3811 119.961 61.9145C120.054 61.3546 120.054 60.9813 120.147 60.608C120.241 60.2347 120.427 59.9547 120.614 59.6748C120.894 59.3948 121.267 59.2081 121.734 59.1148C122.2 59.0215 122.574 59.1148 122.947 59.2081C123.32 59.3948 123.6 59.5814 123.88 59.9547C124.16 60.328 124.253 60.7013 124.347 61.2612C124.44 62.0078 124.347 62.5677 124.067 63.1277C123.787 63.6876 123.32 63.9676 122.76 64.1542L122.574 63.0343C122.854 62.941 123.134 62.7544 123.32 62.4744C123.507 62.1944 123.507 61.8212 123.507 61.3546C123.414 60.9813 123.227 60.608 123.04 60.4213C122.76 60.2347 122.48 60.1414 122.107 60.1414C121.827 60.1414 121.64 60.328 121.454 60.5147C121.267 60.7013 121.174 60.8879 121.174 61.1679C121.08 61.4479 121.08 61.7278 120.987 62.1944C120.894 62.7544 120.894 63.1277 120.801 63.501C120.707 63.8742 120.521 64.1542 120.334 64.4342C120.054 64.7141 119.681 64.9008 119.214 64.9941C118.841 65.0874 118.467 64.9941 118.094 64.9008C117.721 64.7141 117.441 64.5275 117.161 64.1542C116.881 63.7809 116.694 63.3143 116.601 62.8477C116.414 62.3811 116.414 61.8212 116.508 61.4479Z" fill="white"></path><path d="M125 71.5264H124.16L124.067 69.38L117.068 69.5666V68.5401L124.067 68.3534L123.973 66.207H124.813L125 71.5264Z" fill="white"></path><path d="M122.574 87.3913L115.481 83.4718L115.761 82.3519L122.294 81.9787L116.601 78.8057L116.881 77.6858L125 77.2192L124.72 78.2458L117.721 78.5257L123.787 81.792L123.507 82.9119L116.788 83.1918L122.854 86.2715L122.574 87.3913Z" fill="white"></path><path d="M120.427 90.2841L118.001 89.2575L116.881 91.8706L116.134 91.5906L117.254 88.9776L114.735 87.951L113.521 90.844L112.775 90.5641L114.361 86.6445L121.547 89.6308L119.961 93.5504L119.214 93.2704L120.427 90.2841Z" fill="white"></path><path d="M111.188 100.643C111.095 99.9898 111.282 99.3365 111.842 98.5899L112.681 97.3767L109.975 95.5103L110.535 94.6704L116.974 99.0565L115.574 101.11C115.108 101.856 114.548 102.229 113.895 102.416C113.241 102.603 112.681 102.416 112.122 102.043C111.655 101.763 111.282 101.203 111.188 100.643ZM112.122 100.27C112.215 100.643 112.402 100.923 112.775 101.203C113.615 101.763 114.268 101.576 114.921 100.643L115.761 99.4298L113.428 97.8433L112.588 99.0565C112.122 99.5231 112.028 99.9898 112.122 100.27Z" fill="white"></path><path d="M104.003 103.069L107.642 103.816L108.482 102.883L106.149 100.736L106.802 99.9897L112.588 105.216L110.908 107.082C110.535 107.549 110.068 107.829 109.695 108.015C109.229 108.202 108.855 108.202 108.482 108.109C108.109 108.015 107.735 107.829 107.362 107.549C106.989 107.176 106.709 106.709 106.616 106.242C106.522 105.776 106.616 105.216 106.989 104.656L103.256 103.909L104.003 103.069ZM109.042 103.443L108.015 104.563C107.642 104.936 107.455 105.402 107.455 105.776C107.455 106.149 107.642 106.522 108.015 106.802C108.389 107.082 108.669 107.269 109.042 107.269C109.415 107.269 109.789 106.989 110.162 106.616L111.188 105.496L109.042 103.443Z" fill="white"></path><path d="M101.203 106.336C101.856 106.242 102.509 106.336 103.163 106.616C103.816 106.896 104.376 107.269 104.842 107.922C105.309 108.482 105.589 109.135 105.682 109.882C105.776 110.535 105.682 111.282 105.402 111.842C105.122 112.495 104.749 113.055 104.189 113.428C103.629 113.895 102.976 114.175 102.323 114.268C101.67 114.361 101.016 114.268 100.363 113.988C99.7098 113.708 99.1498 113.335 98.6832 112.682C98.2166 112.028 97.9366 111.468 97.8433 110.722C97.75 110.069 97.8433 109.415 98.03 108.762C98.2166 108.109 98.6832 107.549 99.2431 107.082C99.8964 106.709 100.55 106.429 101.203 106.336ZM98.9632 109.042C98.7765 109.509 98.7765 109.975 98.8699 110.535C98.9632 111.095 99.2431 111.562 99.6164 112.028C99.9897 112.495 100.456 112.868 100.923 113.055C101.39 113.242 101.856 113.335 102.416 113.242C102.883 113.148 103.349 112.962 103.816 112.588C104.283 112.215 104.562 111.842 104.749 111.375C104.936 110.909 104.936 110.442 104.842 109.882C104.749 109.322 104.469 108.855 104.096 108.389C103.723 107.922 103.256 107.549 102.789 107.362C102.323 107.176 101.763 107.082 101.296 107.176C100.83 107.269 100.363 107.456 99.8964 107.829C99.4298 108.202 99.1498 108.575 98.9632 109.042Z" fill="white"></path><path d="M93.1772 120.147L92.0574 111.842L93.0839 111.282L99.3365 116.788L98.4033 117.348L93.0839 112.588L94.1105 119.681L93.1772 120.147Z" fill="white"></path><path d="M90.2842 121.267L87.3912 113.988L88.3245 113.615L91.2174 120.894L90.2842 121.267Z" fill="white"></path><path d="M86.6447 121.734L85.8981 119.214L83.1918 120.054L82.9118 119.214L85.6181 118.374L84.8716 115.761L81.7919 116.694L81.512 115.854L85.5248 114.641L87.7645 122.107L83.7517 123.32L83.4717 122.48L86.6447 121.734Z" fill="white"></path><path d="M76.5659 124.16C75.9127 123.974 75.3528 123.507 74.9795 123.04C74.6062 122.481 74.3262 121.827 74.2329 121.081C74.1396 120.334 74.2329 119.588 74.4195 118.934C74.6995 118.281 75.0728 117.814 75.6327 117.441C76.1927 117.068 76.9392 116.788 77.7791 116.695L80.2055 116.321L81.3254 124.067L78.899 124.44C77.9658 124.44 77.2192 124.44 76.5659 124.16ZM75.6327 118.561C75.1661 119.121 74.9795 119.961 75.1661 120.894C75.2594 121.827 75.6327 122.574 76.286 123.04C76.9392 123.507 77.6858 123.694 78.7123 123.507L80.1122 123.32L79.2723 117.255L77.8725 117.441C76.8459 117.628 76.0993 118.001 75.6327 118.561Z" fill="white"></path><path d="M64.1541 120.52C63.9675 120.334 63.7808 120.054 63.6875 119.774C63.5942 119.494 63.5009 119.214 63.5942 118.841C63.5942 118.467 63.7808 118.094 63.9675 117.814C64.1541 117.534 64.5274 117.254 64.9007 117.161C65.274 116.974 65.7406 116.974 66.3005 116.974L69.1935 117.254L68.5402 125L65.7406 124.72C65.1806 124.72 64.8074 124.533 64.4341 124.347C64.0608 124.16 63.7808 123.88 63.6875 123.6C63.5009 123.32 63.5009 122.947 63.5009 122.573C63.5009 122.107 63.6875 121.734 63.9675 121.454C64.2474 121.174 64.6207 120.987 64.994 120.894C64.6207 120.8 64.3407 120.707 64.1541 120.52ZM67.7003 121.547L66.0205 121.36C65.5539 121.36 65.1806 121.36 64.9007 121.64C64.6207 121.827 64.4341 122.107 64.4341 122.573C64.4341 122.947 64.5274 123.32 64.714 123.507C64.994 123.787 65.3673 123.88 65.8339 123.973L67.5137 124.16L67.7003 121.547ZM64.994 118.094C64.714 118.281 64.5274 118.654 64.5274 119.027C64.5274 119.494 64.6207 119.774 64.9007 120.054C65.1806 120.334 65.5539 120.52 66.0205 120.52L67.7937 120.707L67.9803 118.001L66.2072 117.814C65.7406 117.814 65.274 117.814 64.994 118.094Z" fill="white"></path><path d="M59.768 123.04L60.3279 120.521L57.5282 119.868L57.7149 119.028L60.5146 119.681L61.0745 117.068L57.9949 116.415L58.1815 115.575L62.2877 116.508L60.6079 124.16L56.5017 123.227L56.6883 122.387L59.768 123.04Z" fill="white"></path><path d="M55.5685 114.921C55.8485 115.201 56.1284 115.575 56.2218 115.948C56.3151 116.321 56.3151 116.695 56.1284 117.161L55.1019 116.788C55.1952 116.415 55.1952 116.135 55.0086 115.761C54.8219 115.481 54.542 115.201 54.0754 115.015C53.6088 114.828 53.2355 114.828 52.8622 114.921C52.4889 115.015 52.3022 115.295 52.1156 115.668C52.0223 115.948 52.0223 116.228 52.1156 116.415C52.2089 116.601 52.3956 116.881 52.5822 117.068C52.7689 117.254 53.0488 117.441 53.4221 117.721C53.8887 118.001 54.1687 118.281 54.4487 118.561C54.7286 118.841 54.8219 119.121 55.0086 119.401C55.1019 119.774 55.1019 120.147 54.9153 120.614C54.7286 120.987 54.542 121.361 54.262 121.547C53.982 121.734 53.6088 121.921 53.1421 121.921C52.6755 121.921 52.3022 121.921 51.7423 121.734C51.0891 121.454 50.5291 121.081 50.2492 120.614C49.9692 120.147 49.8759 119.588 49.9692 118.934L50.9957 119.308C50.9024 119.588 50.9957 119.867 51.1824 120.241C51.369 120.521 51.649 120.801 52.1156 120.987C52.4889 121.174 52.8622 121.174 53.2355 121.081C53.6088 120.987 53.7954 120.707 53.8887 120.334C53.982 120.054 53.982 119.867 53.8887 119.588C53.7954 119.401 53.7021 119.121 53.5154 119.028C53.3288 118.841 53.0488 118.654 52.6755 118.374C52.2089 118.094 51.929 117.814 51.649 117.534C51.369 117.254 51.1824 116.975 51.0891 116.695C50.9957 116.321 50.9957 115.948 51.1824 115.481C51.2757 115.108 51.5557 114.828 51.8356 114.548C52.1156 114.268 52.4889 114.175 52.9555 114.082C53.4221 113.988 53.8887 114.082 54.3553 114.268C54.8219 114.362 55.1952 114.641 55.5685 114.921Z" fill="white"></path><path d="M42.5967 117.348L42.97 116.601L44.8365 117.628L48.1027 111.468L49.036 111.935L45.7697 118.094L47.6361 119.121L47.2628 119.867L42.5967 117.348Z" fill="white"></path><path d="M41.2902 107.922L39.1438 106.242L39.7038 105.589L42.5968 107.922L37.744 113.988L36.9041 113.335L41.2902 107.922Z" fill="white"></path><path d="M33.0779 108.948L34.9444 107.082L32.9846 105.029L33.5445 104.469L35.5976 106.522L37.464 104.656L35.2243 102.416L35.7843 101.856L38.7706 104.842L33.2646 110.348L30.2783 107.362L30.8382 106.802L33.0779 108.948Z" fill="white"></path><path d="M30.6515 97.9366L32.7046 100.643L34.4777 100.083L35.131 100.923L27.1986 103.443L26.452 102.509L31.0248 95.6035L31.6781 96.4434L30.6515 97.9366ZM30.1849 98.6831L27.8519 102.136L31.8647 100.923L30.1849 98.6831Z" fill="white"></path><path d="M28.5051 90.844L26.5454 94.017L27.1053 95.1369L29.905 93.6437L30.3716 94.5769L23.4657 98.1232L22.2526 95.8834C21.9726 95.3235 21.8793 94.8569 21.7859 94.3903C21.7859 93.9237 21.8793 93.5504 22.0659 93.1771C22.2526 92.8038 22.5325 92.5238 22.9991 92.3372C23.4657 92.0572 23.9324 91.9639 24.4923 92.0572C24.9589 92.1505 25.4255 92.4305 25.8921 92.8971L27.8519 89.6309L28.5051 90.844ZM26.3587 95.5101L25.6121 94.2036C25.3322 93.737 25.0522 93.4571 24.6789 93.2704C24.3056 93.1771 23.9324 93.1771 23.5591 93.4571C23.1858 93.6437 22.9058 93.9237 22.8125 94.297C22.7192 94.6702 22.8125 95.0435 23.0925 95.6035L23.839 96.91L26.3587 95.5101Z" fill="white"></path><path d="M25.3322 82.6318L25.7055 83.5651L21.1327 89.4443L27.012 87.4846L27.3853 88.4178L20.0129 90.9375L19.6396 90.0043L24.119 84.125L18.2397 86.0847L17.8665 85.1515L25.3322 82.6318Z" fill="white"></path><path d="M17.1199 81.5118L24.7723 79.832L24.9589 80.8586L17.3065 82.5384L17.1199 81.5118Z" fill="white"></path><path d="M23.7457 71.9932L23.839 73.0197L18.0531 77.6858L24.2123 77.1259L24.399 78.0591L16.6533 78.8057L16.5599 77.7791L22.3459 73.113L16.1866 73.673L16 72.7397L23.7457 71.9932Z" fill="white"></path><path d="M18.7063 63.9677C18.2397 64.1543 17.8664 64.4343 17.5865 64.8076C17.3065 65.1809 17.1199 65.6475 17.1199 66.2074C17.1199 66.7674 17.1199 67.234 17.3998 67.7006C17.5865 68.1672 17.9598 68.5405 18.4264 68.8204C18.893 69.1004 19.3596 69.287 20.0128 69.287C20.6661 69.287 21.1327 69.287 21.6926 69.0071C22.1592 68.8204 22.5325 68.4471 22.8125 68.0739C23.0925 67.7006 23.2791 67.1406 23.2791 66.674C23.3724 65.9275 23.1858 65.2742 22.7192 64.7143C22.2526 64.1543 21.5993 63.8744 20.8527 63.7811L20.5728 66.8607L19.7329 66.7674L20.1062 62.5679L20.8527 62.6612C21.506 62.7545 22.0659 63.0345 22.5325 63.4078C22.9991 63.7811 23.4658 64.2477 23.6524 64.9009C23.9324 65.4609 24.0257 66.1141 23.9324 66.7674C23.839 67.5139 23.6524 68.1672 23.2791 68.7271C22.9058 69.287 22.3459 69.7537 21.786 70.0336C21.226 70.3136 20.4795 70.4069 19.7329 70.4069C18.9863 70.3136 18.333 70.1269 17.6798 69.7537C17.1199 69.3804 16.6533 68.8204 16.3733 68.2605C16.0933 67.6073 16 66.954 16 66.2074C16.0933 65.3675 16.3733 64.621 16.7466 64.061C17.1199 63.5011 17.7731 63.0345 18.613 62.8478L18.7063 63.9677Z" fill="white"></path><path d="M19.6395 56.5017C19.1729 55.9418 18.893 55.3818 18.7063 54.7286C18.613 54.0753 18.613 53.4221 18.893 52.6755C19.1729 51.8356 19.6395 51.2757 20.1995 50.8091C20.7594 50.3425 21.506 50.0625 22.3459 50.0625L21.9726 51.1824C21.4127 51.2757 21.0394 51.369 20.6661 51.7423C20.2928 52.1156 19.9195 52.4889 19.7329 52.9555C19.5462 53.5154 19.5462 53.982 19.6395 54.4486C19.7329 54.9152 20.0128 55.3818 20.2928 55.7551C20.6661 56.1284 21.1327 56.4084 21.6926 56.595C22.2526 56.7817 22.8125 56.875 23.3724 56.7817C23.9324 56.6884 24.3056 56.5017 24.7723 56.1284C25.1455 55.7551 25.4255 55.3818 25.6121 54.8219C25.7988 54.262 25.7988 53.7954 25.7055 53.3288C25.6121 52.8622 25.3322 52.4889 24.9589 52.1156L25.3322 50.9957C25.9854 51.5557 26.3587 52.1156 26.5454 52.8622C26.732 53.6087 26.6387 54.3553 26.3587 55.1952C26.0788 55.8485 25.7055 56.4084 25.2389 56.875C24.6789 57.3416 24.119 57.6216 23.4657 57.7149C22.8125 57.8082 22.0659 57.8082 21.3193 57.5283C20.7594 57.4349 20.1062 57.0616 19.6395 56.5017Z" fill="white"></path><path d="M28.5985 48.9428C28.0385 49.3161 27.3853 49.5027 26.6387 49.5027C25.8921 49.5027 25.2389 49.3161 24.5856 48.9428C23.9324 48.5695 23.4658 48.0096 23.0925 47.4497C22.7192 46.8897 22.5325 46.2365 22.5325 45.4899C22.5325 44.8366 22.7192 44.1834 23.0925 43.5301C23.4658 42.8769 23.9324 42.4103 24.4923 42.037C25.0522 41.6637 25.7055 41.4771 26.4521 41.4771C27.1986 41.4771 27.8519 41.6637 28.5051 42.037C29.1584 42.4103 29.7183 42.8769 29.9983 43.5301C30.3716 44.0901 30.5582 44.7433 30.5582 45.4899C30.5582 46.1431 30.3716 46.7964 29.9983 47.4497C29.625 48.1029 29.1584 48.5695 28.5985 48.9428ZM29.625 45.5832C29.625 45.1166 29.4384 44.5567 29.1584 44.1834C28.8784 43.7168 28.5051 43.3435 27.9452 43.0635C27.3853 42.7836 26.8253 42.5969 26.3587 42.5969C25.7988 42.5969 25.3322 42.6902 24.9589 42.9702C24.4923 43.2502 24.2123 43.6235 23.9324 44.0901C23.6524 44.5567 23.4658 44.93 23.4658 45.4899C23.4658 45.9565 23.6524 46.4231 23.9324 46.8897C24.2123 47.3563 24.5856 47.7296 25.1455 48.0096C25.7055 48.2896 26.2654 48.4762 26.732 48.4762C27.2919 48.4762 27.7586 48.3829 28.2252 48.1029C28.6918 47.8229 28.9717 47.4497 29.2517 46.983C29.5317 46.6098 29.625 46.0498 29.625 45.5832Z" fill="white"></path><path d="M27.2919 37.2773L31.1181 40.4503C31.6781 40.9169 32.1447 41.1035 32.6113 41.0102C33.0779 40.9169 33.5445 40.7302 33.9178 40.2636C34.2911 39.797 34.4777 39.3304 34.3844 38.8638C34.3844 38.3972 34.0111 37.9306 33.5445 37.464L29.7183 34.291L30.3715 33.5444L34.1977 36.7174C34.6644 37.0907 35.0376 37.5573 35.2243 38.0239C35.4109 38.4905 35.4109 38.9571 35.3176 39.517C35.2243 39.9836 34.9443 40.4503 34.571 40.9169C34.1977 41.3835 33.8245 41.6634 33.3579 41.8501C32.8912 42.0367 32.4246 42.13 31.958 42.0367C31.4914 41.9434 30.9315 41.6634 30.4649 41.2902L26.6387 38.1172L27.2919 37.2773Z" fill="white"></path><path d="M40.7303 34.5711L37.1841 33.4512L36.2509 34.2911L38.3973 36.7175L37.6507 37.3708L32.4247 31.4915L34.2911 29.8117C34.7577 29.4384 35.131 29.1584 35.5976 29.0651C36.0642 28.9718 36.4375 28.9718 36.8108 29.0651C37.1841 29.1584 37.5574 29.4384 37.8374 29.7184C38.2106 30.0916 38.3973 30.5583 38.3973 31.1182C38.3973 31.6781 38.304 32.1447 37.9307 32.6113L41.5702 33.7312L40.7303 34.5711ZM35.7843 33.6379L36.9041 32.6113C37.2774 32.2381 37.5574 31.8648 37.5574 31.4915C37.5574 31.1182 37.4641 30.7449 37.1841 30.3716C36.9041 29.9983 36.5308 29.8117 36.1576 29.8117C35.7843 29.8117 35.411 29.9983 34.9444 30.3716L33.8245 31.3982L35.7843 33.6379Z" fill="white"></path><path d="M43.6233 32.0512C43.1567 32.1445 42.7834 32.0512 42.4101 31.9579C42.0368 31.7712 41.7569 31.5846 41.4769 31.2113L42.4101 30.6514C42.5968 30.9313 42.9701 31.118 43.3433 31.2113C43.7166 31.3046 44.0899 31.2113 44.5565 30.9313C44.9298 30.6514 45.2098 30.3714 45.3031 29.9981C45.3964 29.6248 45.3031 29.3449 45.1165 28.9716C44.9298 28.6916 44.7432 28.5983 44.5565 28.505C44.2766 28.4116 44.0899 28.4116 43.81 28.505C43.53 28.5983 43.25 28.6916 42.7834 28.7849C42.3168 28.9716 41.8502 29.0649 41.5702 29.1582C41.1969 29.2515 40.917 29.1582 40.5437 29.0649C40.1704 28.9716 39.8904 28.6916 39.6105 28.3183C39.3305 27.945 39.2372 27.5718 39.2372 27.1985C39.2372 26.8252 39.3305 26.4519 39.6105 26.0786C39.7971 25.7053 40.1704 25.4253 40.5437 25.1454C41.1969 24.7721 41.7569 24.5854 42.3168 24.5854C42.8767 24.6788 43.4367 24.8654 43.81 25.332L42.8767 25.9853C42.6901 25.7986 42.4101 25.612 42.0368 25.612C41.6636 25.612 41.2903 25.7053 40.917 25.892C40.5437 26.1719 40.357 26.4519 40.2637 26.7319C40.1704 27.0118 40.2637 27.3851 40.4504 27.7584C40.637 28.0384 40.8237 28.1317 41.0103 28.225C41.1969 28.3183 41.4769 28.3183 41.7569 28.225C42.0368 28.1317 42.3168 28.0384 42.7834 27.945C43.25 27.7584 43.7166 27.6651 44.0899 27.5718C44.4632 27.4784 44.7432 27.5718 45.1165 27.6651C45.4898 27.7584 45.7697 28.0384 46.0497 28.4116C46.2363 28.6916 46.3296 29.0649 46.423 29.4382C46.423 29.8115 46.3296 30.1848 46.143 30.6514C45.9564 31.0247 45.5831 31.3979 45.1165 31.6779C44.5565 31.8646 44.0899 32.0512 43.6233 32.0512Z" fill="white"></path><path d="M46.3296 22.6259L47.4495 24.9589L49.9692 23.7458L50.3425 24.4923L47.8228 25.7055L49.036 28.1319L51.929 26.7321L52.3022 27.4786L48.476 29.3451L45.1165 22.3459L48.9427 20.4795L49.3159 21.2261L46.3296 22.6259Z" fill="white"></path><defs><filter id="filter0_b_55_1205" x="-20" y="-20" width="180" height="180" filterUnits="userSpaceOnUse" color-interpolation-filters="sRGB"><feGaussianBlur stdDeviation="10"></feGaussianBlur></filter><linearGradient id="paint0_linear_55_1205" x1="70" y1="0" x2="70" y2="140" gradientUnits="userSpaceOnUse"><stop stop-color="#553CDF"></stop><stop offset="1" stop-color="#816AFF" stop-opacity="0"></stop></linearGradient><linearGradient id="paint1_linear_55_1205" x1="70" y1="0" x2="70" y2="140" gradientUnits="userSpaceOnUse"><stop stop-color="#553CDF"></stop><stop offset="1" stop-color="#8D78FF" stop-opacity="0"></stop></linearGradient></defs></svg>