<svg xmlns="http://www.w3.org/2000/svg" width="94" height="94" viewBox="0 0 94 94" fill="none"><path fill-rule="evenodd" clip-rule="evenodd" d="M56.5767 64.4883C74.3669 67.0363 78.985 77.4894 78.985 89.9998H15.998C15.998 77.4894 20.616 67.0361 38.4063 64.4883C40.3896 67.6922 43.3005 69.5875 47.4917 69.5875C51.6827 69.5875 54.5936 67.6922 56.5767 64.4883Z" fill="#364BC5"></path><path fill-rule="evenodd" clip-rule="evenodd" d="M61.7543 29.1621C64.9679 32.6298 66.9332 37.2709 66.9332 42.3715C66.9332 53.108 58.2295 61.8117 47.493 61.8117C36.7564 61.8117 28.0527 53.108 28.0527 42.3715C28.0527 37.2709 30.018 32.6298 33.2316 29.1621C37.365 29.6948 42.2532 30.0028 47.493 30.0028C52.7327 30.0028 57.6209 29.6948 61.7543 29.1621Z" fill="#364BC5"></path><path fill-rule="evenodd" clip-rule="evenodd" d="M61.7547 21.9766V26.7159C57.621 27.2486 52.7319 27.5568 47.4915 27.5568C42.2511 27.5568 37.3622 27.2486 33.2285 26.7159V21.9766L43.1868 24.2795C46.1533 24.9655 48.8297 24.9655 51.7962 24.2795L61.7547 21.9766Z" fill="#364BC5"></path><path fill-rule="evenodd" clip-rule="evenodd" d="M15.4726 13.9244L43.1893 7.51459C46.1559 6.82847 48.8322 6.82847 51.7987 7.51459L79.5154 13.9244C79.9377 14.0221 80.2283 14.3874 80.2283 14.821C80.2283 15.2544 79.9377 15.6198 79.5154 15.7176L73.7866 17.0425V28.4848L76.8733 33.831C77.3025 34.5724 77.0496 35.5218 76.3082 35.9511C75.5669 36.3804 74.6174 36.1275 74.1881 35.3861L73.7866 34.6906V35.4924C73.7866 36.3514 73.0902 37.0477 72.2313 37.0477C71.3724 37.0477 70.676 36.3514 70.676 35.4924V34.6903L70.2745 35.3857C69.8452 36.1271 68.8957 36.38 68.1543 35.9508C67.413 35.5215 67.16 34.572 67.5893 33.8306L70.676 28.4844V17.7618L51.7987 22.1273C48.8322 22.8134 46.1559 22.8134 43.1893 22.1273L15.4726 15.7176C15.0503 15.6198 14.7598 15.2544 14.7598 14.821C14.7598 14.3874 15.0501 14.0221 15.4726 13.9244Z" fill="#364BC5"></path></svg>