<svg xmlns="http://www.w3.org/2000/svg" width="94" height="94" viewBox="0 0 94 94" fill="none"><path d="M27.9042 33.5453C25.322 36.4779 24.1416 40.4895 24.658 44.538L24.6949 44.8331H69.5693L69.6062 44.5472C70.1226 40.4802 68.933 36.4687 66.36 33.5453C65.5485 32.6231 64.6447 31.8577 63.658 31.249C60.3104 36.8929 54.1593 40.6924 47.1321 40.6924C40.1049 40.6924 33.9538 36.8929 30.6062 31.249C29.6195 31.8577 28.7157 32.6231 27.9042 33.5453Z" fill="#364BC5"></path><path d="M13.1486 51.4253C11.5491 53.2688 10.8295 55.7121 11.1745 58.1284L14.5499 81.7535C15.138 85.8719 18.7187 88.9781 22.8794 88.9781H71.3834C75.5441 88.9781 79.1248 85.8719 79.7129 81.7535L83.0883 58.1284C83.4333 55.7121 82.7137 53.2688 81.1142 51.4253C79.5157 49.5827 77.1994 48.5254 74.7588 48.5254H19.504C17.0634 48.5254 14.7471 49.5827 13.1486 51.4253Z" fill="#364BC5"></path><path d="M47.1308 37.0028C55.6782 37.0028 62.6326 30.0493 62.6326 21.5019C62.6326 12.9544 55.6782 6 47.1308 6C38.5833 6 31.6289 12.9544 31.6289 21.5018C31.6289 30.0493 38.5833 37.0028 47.1308 37.0028Z" fill="#364BC5"></path></svg>