<svg xmlns="http://www.w3.org/2000/svg" width="34" height="34" viewBox="0 0 34 34" fill="none"><g clip-path="url(#clip0_1366_78787)"><path d="M3.96683 7.36667L9.91683 11.3333L15.847 3.03167C15.978 2.84802 16.1511 2.69833 16.3516 2.59505C16.5522 2.49177 16.7746 2.43789 17.0002 2.43789C17.2258 2.43789 17.4481 2.49177 17.6487 2.59505C17.8493 2.69833 18.0223 2.84802 18.1533 3.03167L24.0835 11.3333L30.0335 7.36667C30.2587 7.21685 30.522 7.13462 30.7925 7.12971C31.0629 7.12479 31.3291 7.19739 31.5596 7.33893C31.79 7.48047 31.9752 7.68502 32.0931 7.92842C32.211 8.17183 32.2568 8.4439 32.2251 8.7125L29.8975 28.4991C29.8569 28.8437 29.6912 29.1614 29.4319 29.392C29.1726 29.6226 28.8377 29.75 28.4907 29.75H5.50958C5.16259 29.75 4.82769 29.6226 4.56839 29.392C4.30909 29.1614 4.14343 28.8437 4.10283 28.4991L1.77525 8.71108C1.7438 8.4426 1.78982 8.17072 1.90788 7.92755C2.02593 7.68437 2.2111 7.48005 2.44152 7.3387C2.67194 7.19735 2.93799 7.12488 3.20826 7.12983C3.47853 7.13479 3.74175 7.21697 3.96683 7.36667V7.36667ZM17.0002 21.25C17.7516 21.25 18.4723 20.9515 19.0036 20.4201C19.535 19.8888 19.8335 19.1681 19.8335 18.4167C19.8335 17.6652 19.535 16.9446 19.0036 16.4132C18.4723 15.8818 17.7516 15.5833 17.0002 15.5833C16.2487 15.5833 15.528 15.8818 14.9967 16.4132C14.4653 16.9446 14.1668 17.6652 14.1668 18.4167C14.1668 19.1681 14.4653 19.8888 14.9967 20.4201C15.528 20.9515 16.2487 21.25 17.0002 21.25Z" fill="#FD7702"></path></g><defs><clipPath id="clip0_1366_78787"><rect width="34" height="34" fill="white"></rect></clipPath></defs></svg>