<svg xmlns="http://www.w3.org/2000/svg" width="84" height="67" viewBox="0 0 84 67" fill="none"><path d="M2.01923 0C0.904615 0 0 0.907727 0 2.02618V64.9722C0 66.0907 0.904615 67 2.01923 67H81.9808C83.0954 67 84 66.0923 84 64.9722V2.02618C84 0.907727 83.0954 0 81.9808 0H2.01923ZM4.03846 4.05397H10.0962V8.10795H4.03846V4.05397ZM14.1346 4.05397H20.0566V8.10795H14.1346V4.05397ZM24.0951 4.05397H30.0203V8.10795H24.0951V4.05397ZM34.0588 4.05397H39.9808V8.10795H34.0588V4.05397ZM44.0192 4.05397H49.9412V8.10795H44.0192V4.05397ZM53.9797 4.05397H59.9049V8.10795H53.9797V4.05397ZM63.9434 4.05397H69.8654V8.10795H63.9434V4.05397ZM73.9038 4.05397H79.9615V8.10795H73.9038V4.05397ZM4.03846 12.1603H79.9615V54.8381H4.03846V12.1603ZM35.028 22.3917C34.5482 22.3868 34.0652 22.5084 33.6339 22.7564C32.7697 23.2492 32.2366 24.1715 32.2366 25.17V41.8333C32.2366 42.8318 32.7697 43.7525 33.6339 44.2468C34.0588 44.4884 34.5305 44.6099 35.0038 44.6099C35.4916 44.6099 35.9811 44.4803 36.4156 44.2225L50.4081 35.8909C51.2481 35.3916 51.7634 34.4823 51.7634 33.5016C51.7634 32.521 51.2497 31.6132 50.4081 31.114L36.4156 22.7823C35.9875 22.5278 35.5094 22.3965 35.028 22.3917ZM4.03846 58.8921H10.0962V62.946H4.03846V58.8921ZM14.1346 58.8921H20.0566V62.946H14.1346V58.8921ZM24.0951 58.8921H30.0203V62.946H24.0951V58.8921ZM34.0588 58.8921H39.9808V62.946H34.0588V58.8921ZM44.0192 58.8921H49.9412V62.946H44.0192V58.8921ZM53.9797 58.8921H59.9049V62.946H53.9797V58.8921ZM63.9434 58.8921H69.8654V62.946H63.9434V58.8921ZM73.9038 58.8921H79.9615V62.946H73.9038V58.8921Z" fill="#3E4EA6"></path></svg>