<svg xmlns="http://www.w3.org/2000/svg" width="78" height="115" viewBox="0 0 78 115" fill="none"><path d="M58.6364 17.0243H71.2415C73.1007 17.0243 74.7832 17.7993 76.0012 19.0174L76.1437 19.1741C77.292 20.3936 78 22.0348 78 23.7899V107.823C78 109.65 77.2336 111.352 76.0012 112.589C74.7832 113.815 73.1007 114.59 71.2415 114.59H6.75845C4.89931 114.59 3.21682 113.815 1.99876 112.597L1.85345 112.438C0.706617 111.215 0 109.577 0 107.823V23.7899C0 21.9635 0.766452 20.2597 1.99876 19.026C3.21682 17.7993 4.89931 17.0243 6.75845 17.0243H19.3636V11.4312C19.3636 10.0992 20.4449 9.01792 21.7769 9.01792H27.8615C28.3316 6.83823 29.4243 4.88364 30.943 3.35786C33.0073 1.28644 35.8565 0 38.9964 0C42.1392 0 44.9913 1.28644 47.0556 3.35786C48.5771 4.88506 49.6698 6.83681 50.1399 9.01792H56.2231C57.5551 9.01792 58.6364 10.0992 58.6364 11.4312V17.0243ZM16.9745 100.442C15.6425 100.442 14.5612 99.3609 14.5612 98.0289C14.5612 96.6969 15.6425 95.6156 16.9745 95.6156H41.8956C43.2276 95.6156 44.3089 96.6969 44.3089 98.0289C44.3089 99.3609 43.2276 100.442 41.8956 100.442H16.9745ZM16.9745 92.668C15.6425 92.668 14.5612 91.5867 14.5612 90.2547C14.5612 88.9226 15.6425 87.8413 16.9745 87.8413H41.8956C43.2276 87.8413 44.3089 88.9226 44.3089 90.2547C44.3089 91.5867 43.2276 92.668 41.8956 92.668H16.9745ZM16.9745 77.8988C15.6425 77.8988 14.5612 76.8175 14.5612 75.4855C14.5612 74.1535 15.6425 73.0722 16.9745 73.0722H61.0255C62.3576 73.0722 63.4388 74.1535 63.4388 75.4855C63.4388 76.8175 62.3576 77.8988 61.0255 77.8988H16.9745ZM16.9745 66.6272C15.6425 66.6272 14.5612 65.5459 14.5612 64.2138C14.5612 62.8818 15.6425 61.8005 16.9745 61.8005H61.0255C62.3576 61.8005 63.4388 62.8818 63.4388 64.2138C63.4388 65.5459 62.3576 66.6272 61.0255 66.6272H16.9745ZM16.9745 55.3555C15.6425 55.3555 14.5612 54.2742 14.5612 52.9422C14.5612 51.6101 15.6425 50.5288 16.9745 50.5288H61.0255C62.3576 50.5288 63.4388 51.6101 63.4388 52.9422C63.4388 54.2742 62.3576 55.3555 61.0255 55.3555H16.9745ZM16.9745 44.0824C15.6425 44.0824 14.5612 43.0011 14.5612 41.669C14.5612 40.337 15.6425 39.2557 16.9745 39.2557H61.0255C62.3576 39.2557 63.4388 40.337 63.4388 41.669C63.4388 43.0011 62.3576 44.0824 61.0255 44.0824H16.9745ZM19.3636 21.851H6.75845C6.23989 21.851 5.76121 22.0761 5.40933 22.428C5.04889 22.7827 4.82665 23.2714 4.82665 23.7899V107.823C4.82665 108.303 5.01898 108.762 5.33097 109.111L5.40933 109.187C5.76121 109.538 6.23989 109.764 6.75845 109.764H71.2415C71.7601 109.764 72.2388 109.538 72.5907 109.187C72.9497 108.832 73.1733 108.342 73.1733 107.823V23.7899C73.1733 23.3098 72.9824 22.8539 72.6719 22.5049L72.5907 22.428C72.2388 22.0761 71.7601 21.851 71.2415 21.851H58.6364V27.5225C58.6364 28.8545 57.5551 29.9358 56.2231 29.9358H21.7769C20.4449 29.9358 19.3636 28.8545 19.3636 27.5225V21.851ZM53.8098 13.8446H47.983C46.651 13.8446 45.5697 12.7633 45.5697 11.4312C45.5697 9.60059 44.8332 7.94375 43.645 6.75133C42.4611 5.56319 40.8157 4.82665 38.9964 4.82665C37.18 4.82665 35.5374 5.56319 34.3536 6.75133C33.1683 7.94375 32.4317 9.60059 32.4317 11.4312C32.4317 12.7633 31.3504 13.8446 30.0184 13.8446H24.1902V25.1091H53.8098V13.8446Z" fill="#3E4EA6"></path></svg>