<svg xmlns="http://www.w3.org/2000/svg" width="88" height="88" viewBox="0 0 88 88" fill="none"><circle cx="43.5" cy="43.5" r="41.5" fill="#FF0000" fill-opacity="0.19"></circle><circle cx="43.5" cy="43.5" r="31.5" fill="#FF0000"></circle><path d="M41.2799 54.2422C40.9218 54.5973 40.6771 55.0506 40.5767 55.5448C40.4762 56.039 40.5245 56.5518 40.7155 57.0186C40.9065 57.4853 41.2315 57.8849 41.6496 58.1669C42.0676 58.4489 42.5599 58.6007 43.0642 58.6029C43.7405 58.5974 44.389 58.3327 44.876 57.8634C45.3493 57.3796 45.6144 56.7297 45.6144 56.0529C45.6144 55.3761 45.3493 54.7262 44.876 54.2424C44.3878 53.7874 43.7453 53.5344 43.078 53.5344C42.4107 53.5344 41.7681 53.7873 41.2799 54.2422ZM51.7449 34.782C51.4524 33.5596 50.9011 32.4141 50.1284 31.4228C49.3557 30.4315 48.3794 29.6174 47.2653 29.0353C45.2199 27.9555 42.8359 27.7094 40.613 28.3486C38.3902 28.9878 36.501 30.4626 35.3416 32.4639C35.0034 33.0498 34.9118 33.746 35.087 34.3994C35.2621 35.0527 35.6896 35.6098 36.2755 35.948C36.8613 36.2861 37.5575 36.3777 38.2109 36.2026C38.8643 36.0274 39.4214 35.5999 39.7595 35.0141C40.0957 34.4331 40.5786 33.9506 41.1599 33.615C41.7412 33.2793 42.4005 33.1022 43.0717 33.1015C44.0847 33.102 45.0561 33.5044 45.7727 34.2203C46.4894 34.9362 46.8927 35.9072 46.8943 36.9201C46.8959 37.9331 46.4955 38.9053 45.7811 39.6235C45.0666 40.3416 44.0965 40.747 43.0835 40.7506H43.0771C42.4011 40.7502 41.7525 41.0182 41.2739 41.4957C40.7954 41.9733 40.526 42.6213 40.525 43.2973L40.5216 45.8521L40.5303 47.1334C40.532 47.8087 40.8015 48.4556 41.2795 48.9325C41.7576 49.4094 42.4052 49.6772 43.0804 49.6773H43.0866C43.763 49.6757 44.4109 49.4054 44.888 48.926C45.3651 48.4466 45.6322 47.7973 45.6305 47.121L45.6267 45.4344C47.8195 44.7844 49.6781 43.3156 50.8171 41.3323C51.9562 39.3491 52.2884 37.0036 51.7449 34.782Z" fill="white"></path></svg>